# xmcd CD database file
#
# Track frame offsets:
#	150
#	18652
#	42015
#	58440
#	67665
#	82587
#	102690
#	123725
#	142215
#	170190
#	189935
#	195367
#	213865
#
# Disc length: 3055 seconds
#
# Revision: 0
# Processed by: cddbd v1.5.2PL0 Copyright (c) Steve Scherf et al.
# Submitted via: CDex 1.51
#
DISCID=ba0bed0d
DTITLE=Miles Davis - Porgy And Bess
DYEAR=1958
DGENRE=Jazz
TTITLE0=The Buzzard Song
TTITLE1=Bess, You Is My Woman Now
TTITLE2=Gone
TTITLE3=Gone, Gone, Gone
TTITLE4=Summertime
TTITLE5=Bess,Oh Where Is My Bess
TTITLE6=Prayer (Oh Doctor Jesus)
TTITLE7=Fisherman, Strawberry And Devil Crab
TTITLE8=My Man's Gone Now
TTITLE9=It Ain't Necessarily So
TTITLE10=Here Come De Honey Man
TTITLE11=I Loves You, Porgy
TTITLE12=There's A Boat That's Leaving Soon For New York
EXTD=YEAR: 1958
EXTT0=
EXTT1=
EXTT2=
EXTT3=
EXTT4=
EXTT5=
EXTT6=
EXTT7=
EXTT8=
EXTT9=
EXTT10=
EXTT11=
EXTT12=
PLAYORDER=
